<svg xmlns="http://www.w3.org/2000/svg" width="1000" height="360" font-family="Arial">
<rect width="1000" height="360" fill="white"/>
<text x="70" y="24" font-size="15" font-weight="bold">[incident] allocation net-inflow 계획(target) vs 실현(dN_P/dt, 30-interval 창)</text>
<text x="14" y="180" font-size="11" transform="rotate(-90 14 180)">veh/h</text>
<line x1="70" y1="46.0" x2="930" y2="46.0" stroke="#e5e7eb"/>
<text x="64" y="50.0" font-size="10" text-anchor="end">258</text>
<line x1="70" y1="113.0" x2="930" y2="113.0" stroke="#e5e7eb"/>
<text x="64" y="117.0" font-size="10" text-anchor="end">171</text>
<line x1="70" y1="180.0" x2="930" y2="180.0" stroke="#e5e7eb"/>
<text x="64" y="184.0" font-size="10" text-anchor="end">84</text>
<line x1="70" y1="247.0" x2="930" y2="247.0" stroke="#e5e7eb"/>
<text x="64" y="251.0" font-size="10" text-anchor="end">-3</text>
<line x1="70" y1="314.0" x2="930" y2="314.0" stroke="#e5e7eb"/>
<text x="64" y="318.0" font-size="10" text-anchor="end">-90</text>
<text x="70.0" y="330" font-size="10" text-anchor="middle">5,580s</text>
<text x="242.0" y="330" font-size="10" text-anchor="middle">5,904s</text>
<text x="414.0" y="330" font-size="10" text-anchor="middle">6,228s</text>
<text x="586.0" y="330" font-size="10" text-anchor="middle">6,552s</text>
<text x="758.0" y="330" font-size="10" text-anchor="middle">6,876s</text>
<text x="930.0" y="330" font-size="10" text-anchor="middle">7,200s</text>
<polyline fill="none" stroke="#2563eb" stroke-width="1.8" points="70.0,64.5 165.6,160.3 261.1,181.0 356.7,162.0 452.2,164.9 547.8,154.4 643.3,172.3 738.9,179.8 834.4,201.0 930.0,215.7"/>
<rect x="70" y="346" width="14" height="4" fill="#2563eb"/>
<text x="88" y="352" font-size="11">realized dN_P/dt [veh/h]</text>
<polyline fill="none" stroke="#dc2626" stroke-width="1.8" points="70.0,275.2 165.6,257.1 261.1,283.8 356.7,262.1 452.2,279.1 547.8,274.3 643.3,295.5 738.9,292.2 834.4,282.8 930.0,267.1"/>
<rect x="272" y="346" width="14" height="4" fill="#dc2626"/>
<text x="290" y="352" font-size="11">target [veh/h]</text>
</svg>