<svg xmlns="http://www.w3.org/2000/svg" width="1000" height="360" font-family="Arial">
<rect width="1000" height="360" fill="white"/>
<text x="70" y="24" font-size="15" font-weight="bold">[medium] allocation net-inflow 계획(target) vs 실현(dN_P/dt, 30-interval 창)</text>
<text x="14" y="180" font-size="11" transform="rotate(-90 14 180)">veh/h</text>
<line x1="70" y1="46.0" x2="930" y2="46.0" stroke="#e5e7eb"/>
<text x="64" y="50.0" font-size="10" text-anchor="end">219</text>
<line x1="70" y1="113.0" x2="930" y2="113.0" stroke="#e5e7eb"/>
<text x="64" y="117.0" font-size="10" text-anchor="end">155</text>
<line x1="70" y1="180.0" x2="930" y2="180.0" stroke="#e5e7eb"/>
<text x="64" y="184.0" font-size="10" text-anchor="end">92</text>
<line x1="70" y1="247.0" x2="930" y2="247.0" stroke="#e5e7eb"/>
<text x="64" y="251.0" font-size="10" text-anchor="end">29</text>
<line x1="70" y1="314.0" x2="930" y2="314.0" stroke="#e5e7eb"/>
<text x="64" y="318.0" font-size="10" text-anchor="end">-34</text>
<text x="70.0" y="330" font-size="10" text-anchor="middle">5,580s</text>
<text x="242.0" y="330" font-size="10" text-anchor="middle">5,904s</text>
<text x="414.0" y="330" font-size="10" text-anchor="middle">6,228s</text>
<text x="586.0" y="330" font-size="10" text-anchor="middle">6,552s</text>
<text x="758.0" y="330" font-size="10" text-anchor="middle">6,876s</text>
<text x="930.0" y="330" font-size="10" text-anchor="middle">7,200s</text>
<polyline fill="none" stroke="#2563eb" stroke-width="1.8" points="70.0,64.5 165.6,183.4 261.1,177.9 356.7,202.0 452.2,268.8 547.8,284.6 643.3,275.5 738.9,256.6 834.4,270.5 930.0,289.0"/>
<rect x="70" y="346" width="14" height="4" fill="#2563eb"/>
<text x="88" y="352" font-size="11">realized dN_P/dt [veh/h]</text>
<polyline fill="none" stroke="#dc2626" stroke-width="1.8" points="70.0,242.9 165.6,269.7 261.1,295.5 356.7,247.2 452.2,227.9 547.8,210.5 643.3,243.1 738.9,266.4 834.4,218.3 930.0,211.6"/>
<rect x="272" y="346" width="14" height="4" fill="#dc2626"/>
<text x="290" y="352" font-size="11">target [veh/h]</text>
</svg>