<svg xmlns="http://www.w3.org/2000/svg" width="1000" height="360" font-family="Arial">
<rect width="1000" height="360" fill="white"/>
<text x="70" y="24" font-size="15" font-weight="bold">[medium] ramp metering vs targets/queues (proposed)</text>
<text x="14" y="180" font-size="11" transform="rotate(-90 14 180)">flow [veh/h]</text>
<text x="986" y="180" font-size="11" transform="rotate(90 986 180)">queue [veh]</text>
<line x1="70" y1="46.0" x2="930" y2="46.0" stroke="#e5e7eb"/>
<text x="64" y="50.0" font-size="10" text-anchor="end">6,313</text>
<text x="936" y="50.0" font-size="10">1,752.8</text>
<line x1="70" y1="113.0" x2="930" y2="113.0" stroke="#e5e7eb"/>
<text x="64" y="117.0" font-size="10" text-anchor="end">5,178</text>
<text x="936" y="117.0" font-size="10">1,283.5</text>
<line x1="70" y1="180.0" x2="930" y2="180.0" stroke="#e5e7eb"/>
<text x="64" y="184.0" font-size="10" text-anchor="end">4,043</text>
<text x="936" y="184.0" font-size="10">814.2</text>
<line x1="70" y1="247.0" x2="930" y2="247.0" stroke="#e5e7eb"/>
<text x="64" y="251.0" font-size="10" text-anchor="end">2,908</text>
<text x="936" y="251.0" font-size="10">344.9</text>
<line x1="70" y1="314.0" x2="930" y2="314.0" stroke="#e5e7eb"/>
<text x="64" y="318.0" font-size="10" text-anchor="end">1,773</text>
<text x="936" y="318.0" font-size="10">-124.3</text>
<text x="70.0" y="330" font-size="10" text-anchor="middle">180s</text>
<text x="242.0" y="330" font-size="10" text-anchor="middle">1,584s</text>
<text x="414.0" y="330" font-size="10" text-anchor="middle">2,988s</text>
<text x="586.0" y="330" font-size="10" text-anchor="middle">4,392s</text>
<text x="758.0" y="330" font-size="10" text-anchor="middle">5,796s</text>
<text x="930.0" y="330" font-size="10" text-anchor="middle">7,200s</text>
<line x1="70" y1="64.5" x2="930" y2="64.5" stroke="#9ca3af" stroke-dasharray="6 4"/>
<text x="926" y="60.5" font-size="10" text-anchor="end" fill="#6b7280">ramp capacity 6000</text>
<polyline fill="none" stroke="#2563eb" stroke-width="1.8" points="70.0,295.5 92.1,295.5 92.1,64.5 114.1,64.5 114.1,76.9 136.2,76.9 136.2,139.4 158.2,139.4 158.2,183.9 180.3,183.9 180.3,72.7 202.3,72.7 202.3,82.2 224.4,82.2 224.4,91.6 246.4,91.6 246.4,79.4 268.5,79.4 268.5,179.9 290.5,179.9 290.5,85.6 312.6,85.6 312.6,89.1 334.6,89.1 334.6,64.9 356.7,64.9 356.7,78.2 378.7,78.2 378.7,83.4 400.8,83.4 400.8,74.6 422.8,74.6 422.8,75.3 444.9,75.3 444.9,86.8 466.9,86.8 466.9,97.1 489.0,97.1 489.0,77.4 511.0,77.4 511.0,116.2 533.1,116.2 533.1,83.2 555.1,83.2 555.1,182.5 577.2,182.5 577.2,113.9 599.2,113.9 599.2,64.5 621.3,64.5 621.3,147.1 643.3,147.1 643.3,111.0 665.4,111.0 665.4,101.8 687.4,101.8 687.4,76.3 709.5,76.3 709.5,184.9 731.5,184.9 731.5,141.7 753.6,141.7 753.6,116.4 775.6,116.4 775.6,112.7 797.7,112.7 797.7,70.9 819.7,70.9 819.7,82.2 841.8,82.2 841.8,146.7 863.8,146.7 863.8,72.2 885.9,72.2 885.9,104.7 907.9,104.7 907.9,64.5 930.0,64.5 930.0,81.7"/>
<rect x="70" y="346" width="14" height="4" fill="#2563eb"/>
<text x="88" y="352" font-size="11">sum metering cmd [veh/h]</text>
<polyline fill="none" stroke="#059669" stroke-width="1.8" points="70.0,182.5 92.1,182.5 92.1,64.5 114.1,64.5 114.1,64.5 136.2,64.5 136.2,89.6 158.2,89.6 158.2,64.5 180.3,64.5 180.3,64.5 202.3,64.5 202.3,82.2 224.4,82.2 224.4,91.0 246.4,91.0 246.4,64.5 268.5,64.5 268.5,179.9 290.5,179.9 290.5,82.2 312.6,82.2 312.6,70.4 334.6,70.4 334.6,64.5 356.7,64.5 356.7,64.5 378.7,64.5 378.7,64.5 400.8,64.5 400.8,64.5 422.8,64.5 422.8,64.5 444.9,64.5 444.9,64.5 466.9,64.5 466.9,64.5 489.0,64.5 489.0,64.5 511.0,64.5 511.0,64.5 533.1,64.5 533.1,64.5 555.1,64.5 555.1,182.5 577.2,182.5 577.2,94.3 599.2,94.3 599.2,64.5 621.3,64.5 621.3,147.1 643.3,147.1 643.3,73.2 665.4,73.2 665.4,64.5 687.4,64.5 687.4,64.5 709.5,64.5 709.5,184.9 731.5,184.9 731.5,125.5 753.6,125.5 753.6,90.9 775.6,90.9 775.6,79.9 797.7,79.9 797.7,64.5 819.7,64.5 819.7,82.2 841.8,82.2 841.8,130.0 863.8,130.0 863.8,64.5 885.9,64.5 885.9,104.7 907.9,104.7 907.9,64.5 930.0,64.5 930.0,64.5"/>
<rect x="272" y="346" width="14" height="4" fill="#059669"/>
<text x="290" y="352" font-size="11">N_UF_star [veh/h]</text>
<polyline fill="none" stroke="#dc2626" stroke-width="1.8" stroke-dasharray="4 3" points="70.0,290.8 92.1,295.0 114.1,294.9 136.2,295.5 158.2,295.3 180.3,294.7 202.3,294.9 224.4,295.1 246.4,294.5 268.5,294.7 290.5,295.1 312.6,294.8 334.6,294.8 356.7,294.9 378.7,295.0 400.8,294.8 422.8,294.7 444.9,295.1 466.9,294.9 489.0,295.0 511.0,295.2 533.1,294.5 555.1,295.2 577.2,294.9 599.2,294.8 621.3,295.0 643.3,295.0 665.4,294.9 687.4,294.7 709.5,295.3 731.5,295.1 753.6,294.9 775.6,294.9 797.7,294.6 819.7,294.9 841.8,295.1 863.8,294.9 885.9,294.8 907.9,294.8 930.0,294.9"/>
<rect x="425" y="346" width="14" height="4" fill="#dc2626"/>
<text x="443" y="352" font-size="11">w_r total [veh]</text>
<polyline fill="none" stroke="#d97706" stroke-width="1.8" stroke-dasharray="4 3" points="70.0,291.2 92.1,291.0 114.1,288.7 136.2,274.7 158.2,264.9 180.3,265.2 202.3,261.1 224.4,253.8 246.4,255.3 268.5,252.3 290.5,242.1 312.6,237.7 334.6,231.4 356.7,225.1 378.7,217.0 400.8,212.9 422.8,208.2 444.9,197.6 466.9,189.6 489.0,181.5 511.0,171.4 533.1,173.1 555.1,161.1 577.2,154.4 599.2,150.1 621.3,140.1 643.3,130.6 665.4,125.6 687.4,121.5 709.5,106.6 731.5,96.1 753.6,90.9 775.6,85.0 797.7,85.8 819.7,80.8 841.8,72.9 863.8,71.7 885.9,72.2 907.9,69.0 930.0,64.5"/>
<rect x="564" y="346" width="14" height="4" fill="#d97706"/>
<text x="582" y="352" font-size="11">x_on total [veh]</text>
</svg>