<svg xmlns="http://www.w3.org/2000/svg" width="1000" height="360" font-family="Arial">
<rect width="1000" height="360" fill="white"/>
<text x="70" y="24" font-size="15" font-weight="bold">[peak] ramp metering vs targets/queues (proposed)</text>
<text x="14" y="180" font-size="11" transform="rotate(-90 14 180)">flow [veh/h]</text>
<text x="986" y="180" font-size="11" transform="rotate(90 986 180)">queue [veh]</text>
<line x1="70" y1="46.0" x2="930" y2="46.0" stroke="#e5e7eb"/>
<text x="64" y="50.0" font-size="10" text-anchor="end">6,286</text>
<text x="936" y="50.0" font-size="10">4,202.8</text>
<line x1="70" y1="113.0" x2="930" y2="113.0" stroke="#e5e7eb"/>
<text x="64" y="117.0" font-size="10" text-anchor="end">5,248</text>
<text x="936" y="117.0" font-size="10">3,076.1</text>
<line x1="70" y1="180.0" x2="930" y2="180.0" stroke="#e5e7eb"/>
<text x="64" y="184.0" font-size="10" text-anchor="end">4,211</text>
<text x="936" y="184.0" font-size="10">1,949.5</text>
<line x1="70" y1="247.0" x2="930" y2="247.0" stroke="#e5e7eb"/>
<text x="64" y="251.0" font-size="10" text-anchor="end">3,173</text>
<text x="936" y="251.0" font-size="10">822.8</text>
<line x1="70" y1="314.0" x2="930" y2="314.0" stroke="#e5e7eb"/>
<text x="64" y="318.0" font-size="10" text-anchor="end">2,135</text>
<text x="936" y="318.0" font-size="10">-303.8</text>
<text x="70.0" y="330" font-size="10" text-anchor="middle">180s</text>
<text x="242.0" y="330" font-size="10" text-anchor="middle">1,584s</text>
<text x="414.0" y="330" font-size="10" text-anchor="middle">2,988s</text>
<text x="586.0" y="330" font-size="10" text-anchor="middle">4,392s</text>
<text x="758.0" y="330" font-size="10" text-anchor="middle">5,796s</text>
<text x="930.0" y="330" font-size="10" text-anchor="middle">7,200s</text>
<line x1="70" y1="64.5" x2="930" y2="64.5" stroke="#9ca3af" stroke-dasharray="6 4"/>
<text x="926" y="60.5" font-size="10" text-anchor="end" fill="#6b7280">ramp capacity 6000</text>
<polyline fill="none" stroke="#2563eb" stroke-width="1.8" points="70.0,295.5 92.1,295.5 92.1,64.6 114.1,64.6 114.1,80.6 136.2,80.6 136.2,95.5 158.2,95.5 158.2,111.3 180.3,111.3 180.3,117.0 202.3,117.0 202.3,136.2 224.4,136.2 224.4,176.0 246.4,176.0 246.4,71.6 268.5,71.6 268.5,193.6 290.5,193.6 290.5,134.0 312.6,134.0 312.6,140.2 334.6,140.2 334.6,96.9 356.7,96.9 356.7,193.6 378.7,193.6 378.7,193.6 400.8,193.6 400.8,131.0 422.8,131.0 422.8,166.0 444.9,166.0 444.9,99.1 466.9,99.1 466.9,185.1 489.0,185.1 489.0,193.6 511.0,193.6 511.0,126.4 533.1,126.4 533.1,193.6 555.1,193.6 555.1,193.6 577.2,193.6 577.2,130.1 599.2,130.1 599.2,193.6 621.3,193.6 621.3,198.8 643.3,198.8 643.3,123.7 665.4,123.7 665.4,177.8 687.4,177.8 687.4,103.7 709.5,103.7 709.5,97.3 731.5,97.3 731.5,122.7 753.6,122.7 753.6,193.6 775.6,193.6 775.6,147.9 797.7,147.9 797.7,117.8 819.7,117.8 819.7,114.9 841.8,114.9 841.8,145.0 863.8,145.0 863.8,64.6 885.9,64.6 885.9,64.5 907.9,64.5 907.9,74.9 930.0,74.9 930.0,67.5"/>
<rect x="70" y="346" width="14" height="4" fill="#2563eb"/>
<text x="88" y="352" font-size="11">sum metering cmd [veh/h]</text>
<polyline fill="none" stroke="#059669" stroke-width="1.8" points="70.0,193.6 92.1,193.6 92.1,64.5 114.1,64.5 114.1,80.6 136.2,80.6 136.2,64.5 158.2,64.5 158.2,72.1 180.3,72.1 180.3,117.0 202.3,117.0 202.3,136.2 224.4,136.2 224.4,176.0 246.4,176.0 246.4,64.5 268.5,64.5 268.5,193.6 290.5,193.6 290.5,134.0 312.6,134.0 312.6,140.2 334.6,140.2 334.6,64.5 356.7,64.5 356.7,193.6 378.7,193.6 378.7,193.6 400.8,193.6 400.8,64.5 422.8,64.5 422.8,166.0 444.9,166.0 444.9,64.5 466.9,64.5 466.9,185.1 489.0,185.1 489.0,193.6 511.0,193.6 511.0,82.6 533.1,82.6 533.1,193.6 555.1,193.6 555.1,193.6 577.2,193.6 577.2,64.5 599.2,64.5 599.2,193.6 621.3,193.6 621.3,198.8 643.3,198.8 643.3,64.5 665.4,64.5 665.4,177.8 687.4,177.8 687.4,64.5 709.5,64.5 709.5,64.5 731.5,64.5 731.5,64.5 753.6,64.5 753.6,193.6 775.6,193.6 775.6,64.5 797.7,64.5 797.7,64.5 819.7,64.5 819.7,64.5 841.8,64.5 841.8,145.0 863.8,145.0 863.8,64.5 885.9,64.5 885.9,64.5 907.9,64.5 907.9,64.5 930.0,64.5 930.0,64.5"/>
<rect x="272" y="346" width="14" height="4" fill="#059669"/>
<text x="290" y="352" font-size="11">N_UF_star [veh/h]</text>
<polyline fill="none" stroke="#dc2626" stroke-width="1.8" stroke-dasharray="4 3" points="70.0,293.6 92.1,295.3 114.1,295.3 136.2,295.5 158.2,295.4 180.3,295.3 202.3,295.5 224.4,295.4 246.4,295.4 268.5,295.4 290.5,295.4 312.6,295.4 334.6,295.4 356.7,295.5 378.7,295.5 400.8,295.4 422.8,295.5 444.9,295.4 466.9,295.5 489.0,295.5 511.0,295.4 533.1,295.5 555.1,295.5 577.2,295.4 599.2,295.4 621.3,295.4 643.3,295.5 665.4,295.4 687.4,295.4 709.5,295.4 731.5,295.4 753.6,295.5 775.6,295.4 797.7,295.4 819.7,295.4 841.8,295.4 863.8,295.3 885.9,295.3 907.9,295.4 930.0,295.3"/>
<rect x="425" y="346" width="14" height="4" fill="#dc2626"/>
<text x="443" y="352" font-size="11">w_r total [veh]</text>
<polyline fill="none" stroke="#d97706" stroke-width="1.8" stroke-dasharray="4 3" points="70.0,292.7 92.1,291.0 114.1,287.7 136.2,282.4 158.2,277.7 180.3,273.8 202.3,266.6 224.4,261.3 246.4,256.5 268.5,251.1 290.5,244.3 312.6,238.2 334.6,232.0 356.7,223.6 378.7,216.5 400.8,210.3 422.8,202.7 444.9,196.7 466.9,189.7 489.0,183.3 511.0,177.8 533.1,169.6 555.1,161.5 577.2,155.0 599.2,149.0 621.3,140.5 643.3,132.6 665.4,125.7 687.4,119.6 709.5,112.9 731.5,107.6 753.6,100.4 775.6,93.9 797.7,87.7 819.7,81.6 841.8,75.7 863.8,73.8 885.9,71.9 907.9,66.3 930.0,64.5"/>
<rect x="564" y="346" width="14" height="4" fill="#d97706"/>
<text x="582" y="352" font-size="11">x_on total [veh]</text>
</svg>