<svg xmlns="http://www.w3.org/2000/svg" width="1000" height="360" font-family="Arial">
<rect width="1000" height="360" fill="white"/>
<text x="70" y="24" font-size="15" font-weight="bold">[peak] signal offsets (proposed) — plant에 미반영(장식 변수)</text>
<text x="14" y="180" font-size="11" transform="rotate(-90 14 180)">offset [s]</text>
<line x1="70" y1="46.0" x2="930" y2="46.0" stroke="#e5e7eb"/>
<text x="64" y="50.0" font-size="10" text-anchor="end">120</text>
<line x1="70" y1="113.0" x2="930" y2="113.0" stroke="#e5e7eb"/>
<text x="64" y="117.0" font-size="10" text-anchor="end">90</text>
<line x1="70" y1="180.0" x2="930" y2="180.0" stroke="#e5e7eb"/>
<text x="64" y="184.0" font-size="10" text-anchor="end">60</text>
<line x1="70" y1="247.0" x2="930" y2="247.0" stroke="#e5e7eb"/>
<text x="64" y="251.0" font-size="10" text-anchor="end">30</text>
<line x1="70" y1="314.0" x2="930" y2="314.0" stroke="#e5e7eb"/>
<text x="64" y="318.0" font-size="10" text-anchor="end">0</text>
<text x="70.0" y="330" font-size="10" text-anchor="middle">180s</text>
<text x="242.0" y="330" font-size="10" text-anchor="middle">1,584s</text>
<text x="414.0" y="330" font-size="10" text-anchor="middle">2,988s</text>
<text x="586.0" y="330" font-size="10" text-anchor="middle">4,392s</text>
<text x="758.0" y="330" font-size="10" text-anchor="middle">5,796s</text>
<text x="930.0" y="330" font-size="10" text-anchor="middle">7,200s</text>
<polyline fill="none" stroke="#2563eb" stroke-width="1.8" points="70.0,314.0 92.1,314.0 92.1,314.0 114.1,314.0 114.1,314.0 136.2,314.0 136.2,314.0 158.2,314.0 158.2,314.0 180.3,314.0 180.3,314.0 202.3,314.0 202.3,314.0 224.4,314.0 224.4,314.0 246.4,314.0 246.4,314.0 268.5,314.0 268.5,314.0 290.5,314.0 290.5,314.0 312.6,314.0 312.6,314.0 334.6,314.0 334.6,314.0 356.7,314.0 356.7,314.0 378.7,314.0 378.7,314.0 400.8,314.0 400.8,314.0 422.8,314.0 422.8,314.0 444.9,314.0 444.9,314.0 466.9,314.0 466.9,314.0 489.0,314.0 489.0,314.0 511.0,314.0 511.0,314.0 533.1,314.0 533.1,314.0 555.1,314.0 555.1,314.0 577.2,314.0 577.2,314.0 599.2,314.0 599.2,314.0 621.3,314.0 621.3,314.0 643.3,314.0 643.3,314.0 665.4,314.0 665.4,314.0 687.4,314.0 687.4,314.0 709.5,314.0 709.5,314.0 731.5,314.0 731.5,314.0 753.6,314.0 753.6,314.0 775.6,314.0 775.6,314.0 797.7,314.0 797.7,314.0 819.7,314.0 819.7,314.0 841.8,314.0 841.8,314.0 863.8,314.0 863.8,314.0 885.9,314.0 885.9,314.0 907.9,314.0 907.9,314.0 930.0,314.0 930.0,314.0"/>
<rect x="70" y="346" width="14" height="4" fill="#2563eb"/>
<text x="88" y="352" font-size="11">offset A [s]</text>
<polyline fill="none" stroke="#dc2626" stroke-width="1.8" points="70.0,280.5 92.1,280.5 92.1,247.0 114.1,247.0 114.1,213.5 136.2,213.5 136.2,196.9 158.2,196.9 158.2,205.2 180.3,205.2 180.3,206.2 202.3,206.2 202.3,199.1 224.4,199.1 224.4,211.6 246.4,211.6 246.4,202.9 268.5,202.9 268.5,195.9 290.5,195.9 290.5,196.9 312.6,196.9 312.6,202.3 334.6,202.3 334.6,200.8 356.7,200.8 356.7,195.1 378.7,195.1 378.7,202.0 400.8,202.0 400.8,207.4 422.8,207.4 422.8,201.9 444.9,201.9 444.9,204.6 466.9,204.6 466.9,196.6 489.0,196.6 489.0,198.0 511.0,198.0 511.0,201.7 533.1,201.7 533.1,188.9 555.1,188.9 555.1,193.2 577.2,193.2 577.2,202.3 599.2,202.3 599.2,192.4 621.3,192.4 621.3,192.2 643.3,192.2 643.3,200.8 665.4,200.8 665.4,205.1 687.4,205.1 687.4,203.6 709.5,203.6 709.5,198.7 731.5,198.7 731.5,200.2 753.6,200.2 753.6,199.3 775.6,199.3 775.6,207.7 797.7,207.7 797.7,208.6 819.7,208.6 819.7,209.1 841.8,209.1 841.8,208.5 863.8,208.5 863.8,209.9 885.9,209.9 885.9,195.6 907.9,195.6 907.9,188.2 930.0,188.2 930.0,201.6"/>
<rect x="188" y="346" width="14" height="4" fill="#dc2626"/>
<text x="206" y="352" font-size="11">offset B [s]</text>
<polyline fill="none" stroke="#059669" stroke-width="1.8" points="70.0,280.5 92.1,280.5 92.1,247.0 114.1,247.0 114.1,213.5 136.2,213.5 136.2,180.0 158.2,180.0 158.2,146.5 180.3,146.5 180.3,113.0 202.3,113.0 202.3,84.2 224.4,84.2 224.4,109.2 246.4,109.2 246.4,91.9 268.5,91.9 268.5,77.8 290.5,77.8 290.5,79.8 312.6,79.8 312.6,90.5 334.6,90.5 334.6,87.6 356.7,87.6 356.7,76.3 378.7,76.3 378.7,89.9 400.8,89.9 400.8,100.8 422.8,100.8 422.8,89.9 444.9,89.9 444.9,95.1 466.9,95.1 466.9,79.3 489.0,79.3 489.0,82.0 511.0,82.0 511.0,89.4 533.1,89.4 533.1,63.8 555.1,63.8 555.1,72.4 577.2,72.4 577.2,90.5 599.2,90.5 599.2,70.8 621.3,70.8 621.3,70.4 643.3,70.4 643.3,87.5 665.4,87.5 665.4,96.1 687.4,96.1 687.4,93.1 709.5,93.1 709.5,83.4 731.5,83.4 731.5,86.3 753.6,86.3 753.6,84.6 775.6,84.6 775.6,101.4 797.7,101.4 797.7,103.3 819.7,103.3 819.7,104.2 841.8,104.2 841.8,103.0 863.8,103.0 863.8,105.8 885.9,105.8 885.9,77.2 907.9,77.2 907.9,62.4 930.0,62.4 930.0,89.3"/>
<rect x="306" y="346" width="14" height="4" fill="#059669"/>
<text x="324" y="352" font-size="11">offset C [s]</text>
<polyline fill="none" stroke="#d97706" stroke-width="1.8" points="70.0,280.5 92.1,280.5 92.1,295.2 114.1,295.2 114.1,261.7 136.2,261.7 136.2,230.8 158.2,230.8 158.2,255.7 180.3,255.7 180.3,258.7 202.3,258.7 202.3,237.2 224.4,237.2 224.4,270.7 246.4,270.7 246.4,248.8 268.5,248.8 268.5,227.7 290.5,227.7 290.5,230.8 312.6,230.8 312.6,246.8 334.6,246.8 334.6,242.3 356.7,242.3 356.7,225.4 378.7,225.4 378.7,245.9 400.8,245.9 400.8,262.2 422.8,262.2 422.8,245.8 444.9,245.8 444.9,253.7 466.9,253.7 466.9,229.9 489.0,229.9 489.0,234.0 511.0,234.0 511.0,245.1 533.1,245.1 533.1,211.6 555.1,211.6 555.1,219.7 577.2,219.7 577.2,246.8 599.2,246.8 599.2,217.2 621.3,217.2 621.3,216.6 643.3,216.6 643.3,242.3 665.4,242.3 665.4,255.2 687.4,255.2 687.4,250.7 709.5,250.7 709.5,236.0 731.5,236.0 731.5,240.5 753.6,240.5 753.6,237.9 775.6,237.9 775.6,263.2 797.7,263.2 797.7,265.9 819.7,265.9 819.7,267.3 841.8,267.3 841.8,265.5 863.8,265.5 863.8,269.7 885.9,269.7 885.9,236.2 907.9,236.2 907.9,204.6 930.0,204.6 930.0,238.1"/>
<rect x="424" y="346" width="14" height="4" fill="#d97706"/>
<text x="442" y="352" font-size="11">offset D [s]</text>
<polyline fill="none" stroke="#7c3aed" stroke-width="1.8" points="70.0,280.5 92.1,280.5 92.1,247.0 114.1,247.0 114.1,213.5 136.2,213.5 136.2,180.0 158.2,180.0 158.2,146.9 180.3,146.9 180.3,150.9 202.3,150.9 202.3,122.3 224.4,122.3 224.4,155.8 246.4,155.8 246.4,137.7 268.5,137.7 268.5,109.7 290.5,109.7 290.5,113.7 312.6,113.7 312.6,135.0 334.6,135.0 334.6,129.1 356.7,129.1 356.7,106.5 378.7,106.5 378.7,133.9 400.8,133.9 400.8,155.6 422.8,155.6 422.8,133.8 444.9,133.8 444.9,144.3 466.9,144.3 466.9,112.5 489.0,112.5 489.0,118.1 511.0,118.1 511.0,132.8 533.1,132.8 533.1,99.3 555.1,99.3 555.1,98.9 577.2,98.9 577.2,132.4 599.2,132.4 599.2,98.9 621.3,98.9 621.3,94.8 643.3,94.8 643.3,128.3 665.4,128.3 665.4,146.3 687.4,146.3 687.4,140.2 709.5,140.2 709.5,120.7 731.5,120.7 731.5,126.7 753.6,126.7 753.6,123.2 775.6,123.2 775.6,156.7 797.7,156.7 797.7,160.5 819.7,160.5 819.7,162.4 841.8,162.4 841.8,160.0 863.8,160.0 863.8,165.6 885.9,165.6 885.9,132.1 907.9,132.1 907.9,98.6 930.0,98.6 930.0,132.1"/>
<rect x="542" y="346" width="14" height="4" fill="#7c3aed"/>
<text x="560" y="352" font-size="11">offset F [s]</text>
</svg>